<svg width="1440" height="163" viewBox="0 0 1440 163" fill="none" xmlns="http://www.w3.org/2000/svg">
<path d="M-1 128.837V128H0V0M-1 128.837L60 138.7C62.0484 139.052 64.1667 139.417 66.3526 139.794C128.194 150.458 244.097 170.444 360 154.7M-1 128.837L-0.175563 128.984L59.8244 139.684L59.8308 139.686C61.8849 140.038 64.0096 140.405 66.2024 140.783C128.041 151.446 244.074 171.456 360.133 155.691M-1 128.837L360.133 155.691M0 0H60H360H720H1080H1380H1439H1440V1V126.996L1440.09 127.004L1440 128H1439V127.912L1380 122.7C1370.36 121.784 1359.17 120.757 1346.68 119.611C1281.43 113.624 1180.72 104.381 1080 90.7M0 0V-1H-1V0H0ZM1080 90.7C1063.05 88.4823 1046.1 86.1389 1029.15 83.7955C926.099 69.549 823.049 55.3025 720 69.3C660 77.15 600 94.575 540 112C480 129.425 420 146.85 360 154.7M1080 90.7L1079.87 91.6909C1079.87 91.691 1079.87 91.6911 1079.87 91.6912C1079.87 91.6913 1079.87 91.6914 1079.87 91.6915L1080 90.7ZM360 154.7L360.13 155.692C360.131 155.691 360.132 155.691 360.133 155.691M360 154.7L360.135 155.691C360.134 155.691 360.134 155.691 360.133 155.691" fill="#FFF5DE" stroke="#1E1E1E" stroke-width="2"/>
</svg>
